<?xml version="1.0" encoding="UTF-8"?>
<svg id="_レイヤー_2" data-name="レイヤー 2" xmlns="http://www.w3.org/2000/svg" viewBox="0 0 144.53 22.32">
  <g id="_レイヤー_10" data-name="レイヤー 10">
    <g>
      <path d="M5.01.69v16.39h4.7v4.63H0V.69h5.01Z"/>
      <path d="M32.34,11.22c0,6.15-4.85,10.97-11.03,10.97s-10.72-5.01-10.72-11.25C10.59,5.11,15.51.25,21.44.25s10.91,4.79,10.91,10.97ZM15.67,10.97c0,3.69,2.43,6.4,5.71,6.4s5.71-2.49,5.71-5.99-2.43-6.31-5.77-6.31-5.64,2.52-5.64,5.9Z"/>
      <path d="M42.71.16l8.26,21.56h-5.17l-1.04-2.74h-5.33l-1.07,2.74h-5.14l1.01-2.74h-1.04l1.64-4.48h1.13L41.48.16h1.23ZM41.01,14.5h2.14l-1.04-2.9-1.1,2.9Z"/>
      <path d="M59.23.69c2.55,0,4.22.31,5.8,1.1,3.47,1.73,5.58,5.26,5.58,9.3,0,4.57-2.62,8.42-6.71,9.93-1.36.47-2.87.69-5.08.69h-5.39V.69h5.8ZM59.33,17.06c1.45,0,2.33-.19,3.25-.73,1.8-1.01,2.9-3,2.9-5.23,0-1.58-.6-3.12-1.58-4.13-1.17-1.2-2.65-1.7-5.01-1.7h-.47v11.79h.91Z"/>
      <path d="M78.59.69v21.03h-5.01V.69h5.01Z"/>
      <path d="M83.19,0l10.66,10.78V.69h4.95v21.63h-.85l-10.75-10.97v10.37h-4.82V0h.82Z"/>
      <path d="M117.27,6.75c-1.58-1.04-3.21-1.58-4.73-1.58-3.31,0-5.61,2.49-5.61,6.05s2.46,6.24,5.77,6.24c.95,0,1.89-.22,2.46-.6l-.03-2.52-4.04-.03.88-4.57h8.1l-.06,9.46c-1.61,1.73-4.51,2.87-7.38,2.87-5.96,0-10.72-4.82-10.72-10.81S106.71.38,112.57.38c1.92,0,4.22.6,5.67,1.45l-.98,4.92Z"/>
      <path d="M128.58,17.18v4.54h-4.82v-4.54h4.82Z"/>
      <path d="M136.56,17.18v4.54h-4.82v-4.54h4.82Z"/>
      <path d="M144.53,17.18v4.54h-4.82v-4.54h4.82Z"/>
    </g>
  </g>
</svg>